HIERARCHY
ROOT hip
{
	OFFSET 0.000000 0.000000 0.000000 
	CHANNELS 6 Xposition Yposition Zposition Xrotation Zrotation Yrotation
	JOINT abdomen
	{
		OFFSET 0.000000 3.402643 0.000000 
		CHANNELS 3 Xrotation Zrotation Yrotation
		JOINT chest
		{
			OFFSET 0.000000 8.438565 -0.680529 
			CHANNELS 3 Xrotation Zrotation Yrotation
			JOINT neck
			{
				OFFSET 0.000000 10.207942 -0.272212 
				CHANNELS 3 Xrotation Zrotation Yrotation
				JOINT head
				{
					OFFSET 0.000000 3.130431 0.000000 
					CHANNELS 3 Xrotation Zrotation Yrotation
					End Site
					{
						OFFSET 0.000000 3.130435 0.000000 
					}
				}
			}
			JOINT lCollar
			{
				OFFSET 3.470700 6.669187 -0.816635 
				CHANNELS 3 Yrotation Zrotation Xrotation
				JOINT lShldr
				{
					OFFSET 3.198488 0.000000 0.000000 
					CHANNELS 3 Zrotation Yrotation Xrotation
					JOINT lForeArm
					{
						OFFSET 10.139888 0.000000 0.000000 
						CHANNELS 3 Yrotation Zrotation Xrotation
						JOINT lHand
						{
							OFFSET 8.370511 0.000000 0.000000 
							CHANNELS 3 Zrotation Yrotation Xrotation
							End Site
							{
								OFFSET 4.083176 0.000000 0.000000 
							}
						}
					}
				}
			}
			JOINT rCollar
			{
				OFFSET -3.470700 6.669187 -0.816635 
				CHANNELS 3 Yrotation Zrotation Xrotation
				JOINT rShldr
				{
					OFFSET -3.198488 0.000000 0.000000 
					CHANNELS 3 Zrotation Yrotation Xrotation
					JOINT rForeArm
					{
						OFFSET -10.139888 0.000000 0.000000 
						CHANNELS 3 Yrotation Zrotation Xrotation
						JOINT rHand
						{
							OFFSET -8.370511 0.000000 0.000000 
							CHANNELS 3 Zrotation Yrotation Xrotation
							End Site
							{
								OFFSET -4.083176 0.000000 0.000000 
							}
						}
					}
				}
			}
		}
	}
	JOINT lThigh
	{
		OFFSET 5.308129 -1.633274 1.361059 
		CHANNELS 3 Xrotation Zrotation Yrotation
		JOINT lShin
		{
			OFFSET -2.041588 -20.007561 0.000000 
			CHANNELS 3 Xrotation Zrotation Yrotation
			JOINT lFoot
			{
				OFFSET 0.000000 -19.190928 -1.224953 
				CHANNELS 3 Xrotation Yrotation Zrotation
				End Site
				{
					OFFSET 0.000000 -2.449906 4.627600 
				}
			}
		}
	}
	JOINT rThigh
	{
		OFFSET -5.308129 -1.633274 1.361059 
		CHANNELS 3 Xrotation Zrotation Yrotation
		JOINT rShin
		{
			OFFSET 2.041588 -20.007561 0.000000 
			CHANNELS 3 Xrotation Zrotation Yrotation
			JOINT rFoot
			{
				OFFSET 0.000000 -19.190928 -1.224953 
				CHANNELS 3 Xrotation Yrotation Zrotation
				End Site
				{
					OFFSET 0.000000 -2.449906 4.627600 
				}
			}
		}
	}
}
MOTION
Frames: 13
Frame Time: 0.033333
-1.883774 49.639400 -4.291502 -4.670035 -14.306862 -90.528725 0.000000 0.000000 0.000000 10.419384 -1.777314 0.332174 -22.886831 5.253030 28.745739 11.732603 6.400172 27.038197 -3.521967 9.154817 6.304141 -79.486473 -10.136919 38.797474 -76.888023 -3.362359 15.974150 2.273447 3.059510 -8.117942 3.089181 -14.089146 8.026228 76.787468 23.886236 24.829981 68.933708 18.933588 40.058342 6.658371 8.484547 -6.320371 17.907297 7.734294 12.795898 7.004836 -2.158307 -25.579678 -3.342927 0.117635 -0.806891 20.828423 -17.518879 -25.879623 7.562960 0.054490 20.928965 -5.914189 0.341203 -3.663839 
-1.860391 49.636040 -4.244366 -4.671114 -14.149865 -90.762253 0.000000 0.000000 0.000000 10.436475 -1.738235 0.420025 -23.448854 5.278717 28.746634 12.097057 6.471439 27.012421 -3.521967 9.154817 6.304141 -78.769180 -10.958218 39.018734 -80.241234 -2.854441 15.683962 3.529667 4.509011 -8.262473 3.089181 -14.089146 8.026228 75.457336 24.142382 23.799803 72.882492 18.995333 39.384205 5.434979 6.654727 -6.743654 17.648586 7.586464 12.622013 7.189788 -2.109928 -25.246153 -3.353428 0.152756 -0.845212 20.369867 -17.685661 -25.765850 7.934224 -0.070360 21.023682 -5.925220 0.356841 -3.678377 
-1.774385 49.620800 -4.206248 -4.650783 -13.698177 -90.794067 0.000000 0.000000 0.000000 10.372069 -1.611304 0.312376 -24.022804 5.209733 28.753666 11.974157 6.378491 26.958506 -3.521967 9.154817 6.304141 -77.710747 -12.605152 38.905659 -85.050568 -2.366602 16.103439 5.504447 6.367272 -8.430457 3.089181 -14.089146 8.026228 73.424835 24.460850 22.040434 78.922951 19.174496 37.179241 4.327926 4.413867 -7.140924 16.930920 7.588052 12.470941 7.575172 -2.030889 -25.018759 -3.419435 0.110791 -0.862666 19.696409 -17.744484 -25.569555 8.146330 -0.141700 20.949541 -5.791461 0.310571 -3.654779 
-1.680773 49.581379 -4.209086 -4.753969 -13.455044 -90.928497 0.000000 0.000000 0.000000 10.281092 -1.699177 0.400504 -24.114815 5.358144 28.534801 11.667544 6.059011 26.890965 -3.521967 9.154817 6.304141 -75.598923 -15.214662 38.389145 -92.430176 -1.965635 15.692744 5.068709 9.809140 -8.477647 3.089181 -14.089146 8.026228 70.739906 25.178762 19.578144 86.861626 18.988167 33.282188 3.516011 1.042059 -7.596414 16.658987 7.539612 12.549184 7.447124 -2.255721 -24.953032 -3.302876 0.162739 -0.936053 18.748428 -18.085670 -25.454966 9.301741 -0.422764 20.863720 -5.893692 0.337269 -3.665361 
-1.461956 49.501617 -4.270650 -4.492835 -12.329785 -91.350235 0.000000 0.000000 0.000000 9.341486 -1.093661 0.732475 -24.322659 5.106019 28.591198 11.621156 5.668503 26.841864 -3.521967 9.154817 6.304141 -73.619751 -19.514433 36.406471 -99.746941 -1.621995 15.381532 4.539192 12.608468 -8.537633 3.089181 -14.089146 8.026228 67.999840 26.134853 15.325756 96.636475 17.922159 29.336414 4.236361 -2.516572 -7.872244 14.554353 8.123618 12.842429 9.289571 -2.403095 -24.970079 -3.832813 0.116804 -0.755165 16.446590 -18.237530 -24.971964 11.245273 -0.698294 19.420338 -6.277159 0.354086 -3.725519 
-1.213178 49.358295 -4.299116 -4.787288 -11.305202 -92.346512 0.000000 0.000000 0.000000 7.930700 -1.239651 1.758035 -24.002390 4.582469 28.576935 11.267011 5.560747 26.541088 -3.521967 9.154817 6.304141 -71.046562 -26.143766 34.280952 -106.254860 -0.652194 15.078078 3.775186 15.069921 -8.629251 3.089181 -14.089146 8.026228 65.111572 28.304501 9.468625 104.833984 16.390142 26.669895 4.291136 -4.560976 -8.077205 12.357638 7.859956 12.332162 11.445934 -2.337554 -23.737392 -4.567018 0.115477 -0.671995 13.450319 -19.809677 -25.782093 15.122251 -0.611680 17.679178 -7.373863 0.427865 -3.969981 
-1.096481 49.221733 -4.487236 -5.144415 -10.894524 -93.299301 0.000000 0.000000 0.000000 6.533252 -1.668524 2.344462 -22.861155 4.633467 28.392954 11.016397 5.192904 26.544003 -3.521967 9.154817 6.304141 -67.856735 -33.221409 30.429325 -111.766701 0.871400 14.997796 2.111138 16.309425 -8.720615 3.089181 -14.089146 8.026228 62.441193 32.321144 3.307634 109.472351 14.915857 24.282272 4.834503 -5.078468 -8.104439 11.471308 7.645746 12.003284 12.542208 -2.286444 -22.730824 -5.124180 0.122423 -0.659071 10.968976 -21.497318 -26.817286 19.594564 -0.544446 15.399597 -7.848664 0.423483 -3.933753 
-1.091197 49.131855 -4.815483 -5.011180 -10.845424 -95.125687 0.000000 0.000000 0.000000 6.771478 -1.950381 3.038672 -23.527967 4.731320 28.514431 11.104191 5.205055 26.662363 -3.521967 9.154817 6.304141 -60.256222 -41.849312 22.098473 -117.222809 0.321936 15.205296 1.244650 16.413729 -8.759907 3.089181 -14.089146 8.026228 57.810154 37.801311 -4.897802 113.684692 14.326291 22.050577 5.588348 -5.579802 -8.113883 11.447721 7.848838 12.217268 13.154756 -2.413972 -21.237335 -5.220338 0.160118 -0.834189 8.983460 -22.733879 -27.457642 22.800182 -0.757139 12.272346 -8.071165 0.416459 -3.831805 
-1.078275 49.047096 -5.290259 -4.575908 -11.086545 -96.978500 0.000000 0.000000 0.000000 6.898274 -2.320952 3.039361 -22.970098 4.641129 28.804533 10.091139 5.317647 26.873539 -3.521967 9.154817 6.304141 -48.192665 -50.358631 9.170967 -119.846054 0.401047 15.054077 1.548995 18.156263 -8.847420 3.089181 -14.089146 8.026228 52.135708 43.946297 -14.582438 114.909203 13.986244 22.838951 5.817995 -6.089419 -8.162871 12.048769 8.446383 12.762446 13.299497 -2.492177 -20.171728 -5.326364 0.168297 -0.937107 7.396032 -23.606813 -27.837206 24.854353 -1.039498 7.736817 -7.798028 0.367381 -3.401544 
-1.110905 48.944592 -5.841101 -4.762313 -11.417165 -98.615120 0.000000 0.000000 0.000000 7.868331 -3.492022 2.768649 -24.602087 4.839987 29.137470 10.566435 6.120747 27.042639 -3.521967 9.154817 6.304141 -28.911108 -56.401588 -11.794208 -121.102654 -0.384674 14.640036 2.768712 17.916445 -8.768275 3.089181 -14.089146 8.026228 43.590309 50.000084 -28.613354 115.705238 14.054400 24.286188 6.244053 -6.074176 -8.144297 12.579087 8.492490 12.806780 13.597006 -2.442310 -18.850672 -5.115639 0.177800 -1.208912 5.887864 -25.215054 -28.311304 26.468166 -1.481215 4.945735 -7.382300 0.309374 -3.017672 
-1.231930 48.768566 -6.656003 -4.125446 -11.804947 -99.946800 0.000000 0.000000 0.000000 7.491735 -2.311053 3.107666 -22.609089 2.955795 29.887634 8.906350 6.517667 26.661482 -3.521967 9.154817 6.304141 -12.296625 -55.558174 -31.218544 -119.274216 -0.978628 13.627852 3.545986 18.022839 -8.734397 3.089181 -14.089146 8.026228 30.493134 55.631649 -43.723209 113.395119 14.138803 24.451380 6.823397 -6.589318 -8.178427 13.004207 9.822858 13.696190 14.959193 -2.345961 -18.536926 -5.509054 0.220991 -1.180434 5.145696 -25.585255 -28.200470 27.083328 -1.762860 4.481078 -6.076003 0.234906 -2.699656 
-1.294193 48.469925 -7.646182 -3.678519 -11.987032 -102.078636 0.000000 0.000000 0.000000 6.588676 -2.162803 3.957784 -20.710125 2.084669 30.217651 7.869509 6.636200 26.578798 -3.521967 9.154817 6.304141 2.754998 -52.017162 -48.518780 -115.146935 -1.413610 13.972565 3.755606 17.889853 -8.718046 3.089181 -14.089146 8.026228 15.702232 59.410236 -59.962196 107.980400 14.240838 28.083332 5.643051 -6.219250 -8.191725 13.257671 11.023576 14.468286 16.688612 -2.287204 -17.458584 -6.085183 0.195535 -1.160848 3.258585 -25.815472 -26.981237 28.252642 -2.523638 7.114399 -4.396552 0.179700 -2.488721 
-1.331231 48.084557 -8.831979 -3.104791 -12.361767 -104.627594 0.000000 0.000000 0.000000 5.304847 -2.198563 5.022945 -17.995481 1.024588 30.689163 6.087559 7.235517 26.527126 -3.521967 9.154817 6.304141 12.896331 -47.650864 -59.722271 -107.972198 -1.134848 16.689793 4.154756 17.911467 -8.702808 3.089181 -14.089146 8.026228 -0.092777 61.977928 -76.142044 99.342033 13.662270 31.936010 5.245321 -5.760773 -8.158799 13.659220 12.382174 15.185436 18.897150 -1.987512 -16.722271 -6.525873 0.226637 -1.158627 1.304615 -25.344704 -25.452133 31.119711 -3.276533 10.553116 -6.227447 0.276838 -3.183382 
